<svg width="1180" height="1245" viewBox="0 0 1180 1245" fill="none" xmlns="http://www.w3.org/2000/svg">
<path d="M0 1064.09C0 1036.41 0 1008.73 0 981.049C0 926.779 42.11 884.789 96.54 884.789C147.26 884.789 197.98 884.879 248.71 884.759C283.43 884.679 312.31 864.329 322.25 833.269C324.4 826.549 325.52 819.669 325.51 812.579C325.46 789.919 325.46 767.249 325.5 744.589C325.56 709.959 353.16 682.269 387.68 682.229C424.17 682.189 460.68 683.059 497.14 681.959C527.93 681.029 561.82 704.759 561.94 745.609C562.04 781.909 562.27 818.219 561.88 854.519C561.48 891.849 534.41 918.099 497.16 918.129C476.11 918.149 455.06 918.109 434.01 918.339C385.7 918.849 362.08 955.329 359.29 990.349C358.13 1004.9 358.7 1019.6 358.68 1034.24C358.62 1071.75 358.66 1109.25 358.66 1146.76C358.66 1195.54 327.22 1233.59 279.29 1242.57C274.01 1243.56 268.54 1243.88 263.15 1243.89C207.42 1243.98 151.68 1243.97 95.95 1243.94C42.05 1243.91 0.03 1201.74 0.02 1147.75C0.02 1119.87 0.02 1091.99 0.02 1064.11L0 1064.09Z" fill="white"/>
<path d="M179.92 63.6095C208.19 63.6095 236.46 63.5795 264.73 63.6095C316.07 63.6895 358.55 106.1 358.6 157.39C358.65 207.13 358.55 256.88 358.64 306.62C358.68 329.91 365.27 350.82 381.83 367.9C394.74 381.22 410.72 387.76 429 388.72C451.83 389.92 474.69 389.23 497.54 389.28C534.43 389.37 561.45 415.6 561.83 452.62C562.2 489.12 562.24 525.64 561.82 562.14C561.39 599.03 534.2 625.279 497.3 625.289C461.41 625.289 425.52 625.299 389.63 625.289C352.72 625.279 325.48 598.039 325.48 561.169C325.48 539.909 325.48 518.65 325.48 497.38C325.48 459.5 299.55 429.35 262.1 423.65C256.54 422.8 250.97 422.41 245.34 422.42C195.82 422.48 146.29 422.46 96.7701 422.45C48.3601 422.45 9.7301 390.25 1.2401 342.65C0.330097 337.55 0.0800974 332.28 0.0700974 327.09C-0.00990257 270.73 9.74722e-05 214.36 0.0300975 158C0.0500975 105.97 42.4301 63.6395 94.5101 63.6095C122.98 63.5895 151.45 63.6095 179.92 63.6095Z" fill="white"/>
<path d="M1179.76 1064.76C1179.76 1093.84 1179.8 1122.92 1179.75 1152C1179.66 1198.32 1140.42 1240.19 1094.2 1243.37C1070.98 1244.97 1047.73 1243.9 1024.49 1244.04C989.41 1244.25 954.33 1244.11 919.24 1244.09C893.8 1244.08 871.26 1236.38 852.34 1218.93C832.28 1200.43 821.63 1177.44 821.38 1150.31C820.92 1099.37 821.55 1048.43 821.12 997.49C820.89 970.89 811.17 948.26 789.4 931.8C777.11 922.5 762.85 918.71 747.78 918.41C725.54 917.98 703.28 918.19 681.03 918.16C645.93 918.12 618.19 890.32 618.17 855.08C618.15 818.58 618.15 782.08 618.17 745.58C618.19 709.61 645.41 682.27 681.17 682.26C718.26 682.26 755.34 682.24 792.43 682.26C826.88 682.29 854.62 710.12 854.64 744.62C854.65 766.68 854.63 788.74 854.64 810.8C854.67 847.78 880.37 877.63 917.05 883.47C922.82 884.39 928.57 884.76 934.39 884.76C984.31 884.73 1034.22 884.73 1084.14 884.75C1129.36 884.76 1167.42 914.99 1177.75 959.04C1179.18 965.12 1179.8 971.25 1179.78 977.5C1179.72 1006.58 1179.75 1035.66 1179.75 1064.74L1179.76 1064.76Z" fill="white"/>
<path d="M1179.74 243.06C1179.74 271.94 1179.76 300.83 1179.74 329.71C1179.71 374.9 1144.04 415.42 1099.27 421.39C1093.68 422.14 1088.12 422.46 1082.51 422.46C1032.59 422.46 982.66 422.38 932.74 422.5C912.89 422.55 894.8 428.2 879.54 441.3C864.38 454.32 855.55 470.94 854.92 490.94C854.2 513.78 854.68 536.67 854.68 559.53C854.67 598.56 827.61 625.55 788.47 625.56C752.78 625.56 717.09 625.61 681.41 625.54C651.54 625.48 626.32 605.38 619.74 576.31C618.69 571.67 618.21 566.8 618.19 562.03C618.07 525.12 618.07 488.22 618.14 451.31C618.2 417.53 646.48 389.21 680.19 389.08C702.04 388.99 723.9 389.02 745.75 388.89C784.51 388.66 814.41 362.35 820.06 323.84C820.91 318.06 821.27 312.31 821.27 306.49C821.25 258.35 821.26 210.21 821.26 162.07C821.26 111.45 852.66 73.5598 902.34 64.4498C906.44 63.6998 910.72 63.7298 914.91 63.7298C972.05 63.6898 1029.19 63.6598 1086.33 63.7098C1137.61 63.7598 1179.73 105.88 1179.75 157.03C1179.75 185.71 1179.75 214.4 1179.75 243.08L1179.74 243.06Z" fill="white"/>
<path d="M589.53 314.14C565.07 314.14 540.62 314.15 516.16 314.14C470.19 314.11 433.13 277.21 433.09 231.37C433.05 181.83 433.04 132.3 433.09 82.7596C433.14 37.1896 470.22 0.0496233 515.61 0.0296233C565.53 0.00962329 615.44 -0.0303767 665.36 0.0396233C707.92 0.0996233 745.32 35.1696 746.55 77.7196C748.08 130.62 748.08 183.58 746.55 236.49C745.33 278.82 708.24 313.83 665.91 314.11C640.45 314.28 614.99 314.14 589.53 314.14Z" fill="white"/>
</svg>
